<svg width="1302" height="1421" viewBox="0 0 1302 1421" fill="none" xmlns="http://www.w3.org/2000/svg">
<path d="M1040.73 1172.5C1199.35 1053.77 1302 864.374 1302 651C1302 291.463 1010.54 0 651 0C291.463 0 0 291.463 0 651C0 864.374 102.654 1053.77 261.27 1172.5C316.861 1130.89 379.327 1097.96 446.656 1075.72C288.752 999.605 179.791 838.027 179.791 651C179.791 390.758 390.758 179.791 651 179.791C911.242 179.791 1122.21 390.758 1122.21 651C1122.21 838.027 1013.25 999.605 855.344 1075.72C922.673 1097.96 985.138 1130.89 1040.73 1172.5Z" fill="black"/>
<path d="M1165.33 1334.92C1105.33 1257.58 1028.65 1194.77 941.009 1151.17C853.37 1107.56 757.025 1084.28 659.143 1083.05C561.262 1081.83 464.365 1102.69 375.662 1144.09C286.959 1185.5 208.736 1246.37 146.812 1322.18L255.554 1411C304.122 1351.54 365.475 1303.8 435.046 1271.32C504.618 1238.85 580.617 1222.49 657.387 1223.45C734.158 1224.41 809.724 1242.67 878.461 1276.87C947.199 1311.07 1007.34 1360.34 1054.4 1420.99L1165.33 1334.92Z" fill="black"/>
<path d="M789.359 1052.71C882.297 1020.7 961.261 957.456 1012.8 873.753C1064.33 790.049 1085.25 691.066 1071.98 593.669C1058.72 496.272 1012.1 406.487 940.055 339.612C868.014 272.738 775.014 232.912 676.9 226.919C578.787 220.927 481.631 249.14 401.987 306.75C322.343 364.36 265.138 447.804 240.12 542.863C215.102 637.922 223.819 738.715 264.784 828.068C305.75 917.421 376.43 989.805 464.782 1032.89L542.402 873.708C490.877 848.583 449.658 806.37 425.768 754.262C401.878 702.153 396.795 643.373 411.385 587.937C425.975 532.501 459.335 483.839 505.782 450.242C552.228 416.645 608.887 400.192 666.104 403.687C723.321 407.181 777.557 430.407 819.57 469.406C861.582 508.406 888.773 560.766 896.508 617.566C904.243 674.366 892.044 732.09 861.99 780.904C831.936 829.718 785.887 866.601 731.687 885.268L789.359 1052.71Z" fill="black"/>
</svg>
