<svg width="1238" height="289" viewBox="0 0 1238 289" fill="none" xmlns="http://www.w3.org/2000/svg">
<path d="M211.024 237.742C243.185 213.668 264 175.265 264 132C264 59.0984 204.902 0 132 0C59.0984 0 0 59.0984 0 132C0 175.265 20.8147 213.668 52.9764 237.742C64.2484 229.305 76.9142 222.627 90.5663 218.118C58.5487 202.685 36.4552 169.923 36.4552 132C36.4552 79.2321 79.2321 36.4552 132 36.4552C184.768 36.4552 227.545 79.2321 227.545 132C227.545 169.923 205.451 202.685 173.434 218.118C187.086 222.627 199.752 229.305 211.024 237.742Z" fill="white"/>
<path d="M236.289 270.675C224.121 254.994 208.574 242.258 190.804 233.416C173.034 224.574 153.498 219.853 133.651 219.605C113.804 219.357 94.1569 223.587 76.1711 231.982C58.1853 240.377 42.3243 252.72 29.7682 268.092L51.8173 286.102C61.6653 274.045 74.1055 264.364 88.2122 257.78C102.319 251.195 117.729 247.877 133.295 248.072C148.862 248.267 164.184 251.969 178.121 258.904C192.059 265.839 204.253 275.828 213.796 288.128L236.289 270.675Z" fill="white"/>
<path d="M160.054 213.453C178.899 206.962 194.91 194.139 205.36 177.166C215.809 160.194 220.05 140.124 217.361 120.375C214.671 100.627 205.218 82.4213 190.61 68.8615C176.003 55.3017 157.146 47.2263 137.252 46.0113C117.358 44.7963 97.6579 50.5168 81.5089 62.1982C65.3599 73.8795 53.7608 90.7989 48.688 110.074C43.6152 129.348 45.3826 149.786 53.689 167.903C61.9954 186.021 76.3268 200.698 94.2415 209.433L109.98 177.157C99.5327 172.063 91.175 163.504 86.3309 152.938C81.4868 142.372 80.4561 130.454 83.4145 119.213C86.3728 107.973 93.1371 98.1056 102.555 91.2933C111.973 84.481 123.461 81.1449 135.063 81.8535C146.664 82.5621 157.661 87.2715 166.18 95.1792C174.699 103.087 180.212 113.704 181.78 125.221C183.349 136.738 180.875 148.442 174.781 158.34C168.688 168.238 159.35 175.716 148.361 179.501L160.054 213.453Z" fill="white"/>
<path d="M412.4 238.064L394.4 213.864C389.067 214.931 383.867 215.464 378.8 215.464C365.6 215.464 353.467 212.397 342.4 206.264C331.467 200.131 322.733 191.597 316.2 180.664C309.8 169.597 306.6 157.197 306.6 143.464C306.6 129.731 309.8 117.397 316.2 106.464C322.733 95.5306 331.467 86.9973 342.4 80.8639C353.467 74.7306 365.6 71.6639 378.8 71.6639C392 71.6639 404.067 74.7306 415 80.8639C426.067 86.9973 434.733 95.5306 441 106.464C447.4 117.397 450.6 129.731 450.6 143.464C450.6 155.464 448.133 166.464 443.2 176.464C438.4 186.331 431.667 194.531 423 201.064L453.8 238.064H412.4ZM341.6 143.464C341.6 155.864 344.933 165.797 351.6 173.264C358.4 180.597 367.467 184.264 378.8 184.264C390 184.264 398.933 180.531 405.6 173.064C412.4 165.597 415.8 155.731 415.8 143.464C415.8 131.064 412.4 121.197 405.6 113.864C398.933 106.397 390 102.664 378.8 102.664C367.467 102.664 358.4 106.331 351.6 113.664C344.933 120.997 341.6 130.931 341.6 143.464ZM580.217 102.464V214.064H546.017V198.864C542.551 203.797 537.817 207.797 531.817 210.864C525.951 213.797 519.417 215.264 512.217 215.264C503.684 215.264 496.151 213.397 489.617 209.664C483.084 205.797 478.017 200.264 474.417 193.064C470.817 185.864 469.017 177.397 469.017 167.664V102.464H503.017V163.064C503.017 170.531 504.951 176.331 508.817 180.464C512.684 184.597 517.884 186.664 524.417 186.664C531.084 186.664 536.351 184.597 540.217 180.464C544.084 176.331 546.017 170.531 546.017 163.064V102.464H580.217ZM621.983 90.8639C615.983 90.8639 611.049 89.1306 607.183 85.6639C603.449 82.0639 601.583 77.6639 601.583 72.4639C601.583 67.1306 603.449 62.7306 607.183 59.2639C611.049 55.6639 615.983 53.8639 621.983 53.8639C627.849 53.8639 632.649 55.6639 636.383 59.2639C640.249 62.7306 642.183 67.1306 642.183 72.4639C642.183 77.6639 640.249 82.0639 636.383 85.6639C632.649 89.1306 627.849 90.8639 621.983 90.8639ZM638.983 102.464V214.064H604.783V102.464H638.983ZM697.967 66.0639V214.064H663.767V66.0639H697.967ZM716.952 143.664C716.952 129.797 719.952 117.464 725.952 106.664C731.952 95.7306 740.285 87.2639 750.952 81.2639C761.752 75.1306 773.952 72.0639 787.552 72.0639C804.218 72.0639 818.485 76.4639 830.352 85.2639C842.218 94.0639 850.152 106.064 854.152 121.264H816.552C813.752 115.397 809.752 110.931 804.552 107.864C799.485 104.797 793.685 103.264 787.152 103.264C776.618 103.264 768.085 106.931 761.552 114.264C755.018 121.597 751.752 131.397 751.752 143.664C751.752 155.931 755.018 165.731 761.552 173.064C768.085 180.397 776.618 184.064 787.152 184.064C793.685 184.064 799.485 182.531 804.552 179.464C809.752 176.397 813.752 171.931 816.552 166.064H854.152C850.152 181.264 842.218 193.264 830.352 202.064C818.485 210.731 804.218 215.064 787.552 215.064C773.952 215.064 761.752 212.064 750.952 206.064C740.285 199.931 731.952 191.464 725.952 180.664C719.952 169.864 716.952 157.531 716.952 143.664ZM909.295 121.064C913.295 114.931 918.295 110.131 924.295 106.664C930.295 103.064 936.962 101.264 944.295 101.264V137.464H934.895C926.362 137.464 919.962 139.331 915.695 143.064C911.429 146.664 909.295 153.064 909.295 162.264V214.064H875.095V102.464H909.295V121.064ZM953.842 158.064C953.842 146.597 955.976 136.531 960.242 127.864C964.642 119.197 970.576 112.531 978.042 107.864C985.509 103.197 993.842 100.864 1003.04 100.864C1010.91 100.864 1017.78 102.464 1023.64 105.664C1029.64 108.864 1034.24 113.064 1037.44 118.264V102.464H1071.64V214.064H1037.44V198.264C1034.11 203.464 1029.44 207.664 1023.44 210.864C1017.58 214.064 1010.71 215.664 1002.84 215.664C993.776 215.664 985.509 213.331 978.042 208.664C970.576 203.864 964.642 197.131 960.242 188.464C955.976 179.664 953.842 169.531 953.842 158.064ZM1037.44 158.264C1037.44 149.731 1035.04 142.997 1030.24 138.064C1025.58 133.131 1019.84 130.664 1013.04 130.664C1006.24 130.664 1000.44 133.131 995.642 138.064C990.976 142.864 988.642 149.531 988.642 158.064C988.642 166.597 990.976 173.397 995.642 178.464C1000.44 183.397 1006.24 185.864 1013.04 185.864C1019.84 185.864 1025.58 183.397 1030.24 178.464C1035.04 173.531 1037.44 166.797 1037.44 158.264ZM1152.38 130.864H1133.98V214.064H1099.78V130.864H1087.38V102.464H1099.78V99.2639C1099.78 85.5306 1103.72 75.1306 1111.58 68.0639C1119.45 60.8639 1130.98 57.2639 1146.18 57.2639C1148.72 57.2639 1150.58 57.3306 1151.78 57.4639V86.4639C1145.25 86.0639 1140.65 86.9973 1137.98 89.2639C1135.32 91.5306 1133.98 95.5973 1133.98 101.464V102.464H1152.38V130.864ZM1230.65 185.064V214.064H1213.25C1200.85 214.064 1191.19 211.064 1184.25 205.064C1177.32 198.931 1173.85 188.997 1173.85 175.264V130.864H1160.25V102.464H1173.85V75.2639H1208.05V102.464H1230.45V130.864H1208.05V175.664C1208.05 178.997 1208.85 181.397 1210.45 182.864C1212.05 184.331 1214.72 185.064 1218.45 185.064H1230.65Z" fill="white"/>
</svg>
